<?xml version="1.0" standalone="no"?>
<!DOCTYPE svg PUBLIC "-//W3C//DTD SVG 20010904//EN"
 "http://www.w3.org/TR/2001/REC-SVG-20010904/DTD/svg10.dtd">
<svg version="1.0" xmlns="http://www.w3.org/2000/svg"
 width="512.000000pt" height="512.000000pt" viewBox="0 0 512.000000 512.000000"
 preserveAspectRatio="xMidYMid meet">
<metadata>
Created by potrace 1.14, written by Peter Selinger 2001-2017
</metadata>
<g transform="translate(0.000000,512.000000) scale(0.100000,-0.100000)"
fill="#000000" stroke="none">
<path d="M1533 4833 c-91 -19 -95 -20 -142 -37 -50 -18 -154 -76 -159 -88 -2
-4 -8 -8 -13 -8 -24 0 -166 -142 -216 -216 -81 -121 -148 -273 -157 -355 -1
-14 -6 -31 -11 -39 -12 -19 -16 -237 -5 -285 4 -22 11 -56 14 -75 7 -46 53
-238 65 -270 5 -14 17 -52 27 -85 9 -33 22 -66 27 -72 5 -7 7 -13 3 -13 -6 0
3 -26 70 -202 34 -89 41 -106 78 -191 14 -32 26 -61 26 -65 1 -4 16 -38 34
-76 24 -48 32 -77 29 -100 -8 -56 -11 -617 -3 -652 5 -19 4 -37 -1 -40 -5 -3
-7 -9 -4 -14 3 -5 8 -46 10 -92 3 -46 8 -105 11 -133 2 -27 7 -77 10 -110 7
-90 14 -165 19 -199 6 -37 11 -71 20 -146 4 -30 9 -66 11 -80 3 -14 7 -41 10
-60 2 -19 7 -48 11 -65 3 -16 7 -39 9 -50 5 -34 43 -208 54 -245 29 -102 64
-208 75 -230 6 -14 23 -47 36 -74 29 -59 112 -145 165 -172 29 -14 60 -19 120
-19 70 0 88 4 145 32 35 18 82 50 104 71 66 65 122 187 150 327 12 61 14 71
20 110 11 75 25 215 30 300 4 66 15 210 21 260 3 22 7 60 9 85 3 43 11 97 21
144 2 11 7 36 10 54 3 19 12 51 19 73 8 21 12 39 9 39 -2 0 11 30 30 68 63
123 115 157 237 157 61 0 86 -5 123 -24 25 -13 46 -29 47 -35 0 -6 2 -31 3
-56 9 -142 30 -204 93 -271 44 -46 50 -60 58 -139 3 -25 7 -65 10 -89 3 -23 8
-77 11 -120 2 -42 7 -98 9 -126 2 -27 7 -81 10 -120 5 -60 20 -181 30 -250 24
-157 86 -312 150 -375 14 -14 33 -33 43 -43 9 -9 22 -17 28 -17 6 0 17 -6 23
-14 10 -12 65 -29 75 -23 1 1 9 -3 17 -9 32 -24 199 -10 199 17 0 6 4 8 9 5 5
-3 34 18 64 47 39 36 68 76 95 132 48 96 94 229 109 310 2 11 9 38 15 60 6 22
12 47 13 55 1 12 9 51 21 103 1 4 2 18 3 31 1 23 4 25 69 25 90 1 116 7 165
38 46 29 507 486 507 502 0 6 6 11 13 11 15 0 59 95 77 167 14 55 5 154 -20
218 -6 17 -10 31 -8 31 2 1 -4 10 -13 20 -13 16 -28 44 -34 64 0 3 -11 23 -22
46 -24 44 -78 200 -88 249 -14 74 -26 144 -31 190 -3 28 -8 53 -11 57 -2 5 -6
18 -9 30 -15 66 -23 86 -89 223 -126 260 -170 376 -156 403 5 9 9 20 10 25 1
4 1 8 2 10 0 1 2 9 4 17 2 8 16 56 30 105 15 50 29 101 31 115 3 14 9 39 14
55 40 130 47 341 15 489 -6 29 -40 136 -52 166 -3 8 -7 17 -7 20 -1 3 -8 16
-16 30 -9 14 -21 34 -27 45 -7 11 -20 35 -29 53 -9 17 -20 32 -25 32 -5 0 -9
6 -9 13 0 15 -121 143 -180 189 -93 73 -231 134 -352 154 -54 9 -235 9 -308 0
-30 -4 -73 -9 -95 -12 -95 -12 -121 -15 -135 -19 -8 -3 -35 -7 -60 -10 -25 -3
-62 -8 -82 -11 -54 -7 -97 -13 -148 -20 -71 -9 -281 -10 -287 -1 -3 4 -10 3
-17 -2 -7 -6 -15 -9 -18 -6 -2 3 -29 7 -60 10 -30 3 -66 8 -79 10 -13 3 -46 8
-74 11 -85 10 -99 12 -120 17 -11 2 -47 8 -80 12 -32 4 -68 9 -80 11 -93 19
-324 23 -402 7z"/>
</g>
</svg>
